<svg xmlns="http://www.w3.org/2000/svg" contentScriptType="text/ecmascript" width="1125" viewBox="0 0 1125 1125" height="1125" version="1.0"><defs><clipPath id="a"><path d="M 127.125 112.5 L 997.875 112.5 L 997.875 1012.5 L 127.125 1012.5 Z M 127.125 112.5"/></clipPath></defs><g clip-path="url(#a)"><path fill="#FFF" d="M 857.457031 403 C 868.683594 382.285156 875.210938 358.671875 875.210938 333.6875 C 875.210938 253.785156 810.199219 188.769531 730.296875 188.769531 C 722.152344 188.769531 714.128906 189.441406 706.226562 190.785156 C 682.335938 143.496094 633.15625 112.5 577.753906 112.5 C 550.449219 112.5 524.121094 120.15625 501.484375 134.464844 C 478.847656 120.15625 452.515625 112.5 425.210938 112.5 C 371.027344 112.5 322.125 142.613281 297.503906 189.257812 C 202.742188 196.0625 127.753906 275.355469 127.753906 371.820312 C 127.753906 432.898438 157.925781 486.929688 204.027344 520.214844 L 204.027344 920.972656 C 204.027344 957.769531 228.402344 1012.5 295.550781 1012.5 L 722.667969 1012.5 C 759.460938 1012.5 814.195312 988.125 814.195312 920.972656 L 814.195312 880.703125 C 996.695312 807.207031 997.246094 631.570312 997.246094 554.871094 C 997.246094 504.046875 967.4375 409.898438 857.457031 403 Z M 753.179688 920.972656 C 753.179688 945.5625 736.398438 951.117188 722.667969 951.484375 L 295.550781 951.484375 C 270.992188 951.484375 265.410156 934.703125 265.042969 920.972656 L 265.042969 548.863281 C 279.6875 552.644531 294.972656 554.871094 310.804688 554.871094 C 315.960938 554.871094 320.996094 554.171875 326.058594 553.773438 L 326.058594 798.941406 C 326.058594 815.8125 339.726562 829.449219 356.566406 829.449219 C 373.410156 829.449219 387.078125 815.8125 387.078125 798.941406 L 387.078125 538.246094 C 395.984375 534.15625 404.589844 529.488281 412.671875 523.96875 C 431.769531 539.128906 454.410156 549.078125 478.601562 552.949219 L 478.601562 798.941406 C 478.601562 815.8125 492.269531 829.449219 509.109375 829.449219 C 525.949219 829.449219 539.617188 815.8125 539.617188 798.941406 L 539.617188 549.230469 C 565 542.363281 587.972656 529.398438 605.792969 510.820312 C 612.6875 520.308594 621.5625 528.054688 631.144531 534.828125 L 631.144531 798.941406 C 631.144531 815.8125 644.78125 829.449219 661.652344 829.449219 C 678.523438 829.449219 692.160156 815.8125 692.160156 798.941406 L 692.160156 554.871094 C 714.921875 554.871094 735.820312 547.398438 753.179688 535.226562 Z M 775.480469 403.976562 C 771.421875 405.136719 767.792969 406.96875 764.617188 409.5625 C 762.511719 410.445312 760.5 411.484375 758.273438 412.183594 C 750.492188 414.6875 744.054688 420.207031 740.394531 427.46875 C 737.191406 433.847656 736.308594 441.136719 737.894531 448.03125 C 737.894531 448.03125 737.894531 448.03125 737.894531 448.0625 C 737.894531 473.292969 717.359375 493.824219 692.128906 493.824219 C 666.898438 493.824219 646.367188 473.292969 646.367188 448.0625 C 646.367188 432.136719 631.9375 418.957031 616.132812 417.613281 C 609.148438 416 601.734375 416.792969 595.234375 420.054688 C 587.972656 423.746094 582.484375 430.183594 579.980469 437.933594 C 569.210938 471.402344 537.667969 493.855469 501.484375 493.855469 C 476.832031 493.855469 453.738281 482.933594 438.148438 463.867188 C 432.746094 457.246094 424.785156 453.21875 416.273438 452.730469 C 407.761719 452.457031 399.402344 455.355469 393.269531 461.304688 C 371.667969 482.292969 342.382812 493.855469 310.804688 493.855469 C 243.503906 493.855469 188.769531 439.125 188.769531 371.820312 C 188.769531 304.519531 243.503906 249.789062 310.804688 249.789062 L 317.667969 249.789062 C 330.695312 249.789062 342.257812 241.519531 346.5 229.226562 C 358 195.910156 389.609375 173.515625 425.210938 173.515625 C 445.925781 173.515625 465.667969 181.203125 480.796875 195.179688 C 492.484375 205.976562 510.511719 205.976562 522.167969 195.179688 C 537.300781 181.203125 557.039062 173.515625 577.753906 173.515625 C 615.949219 173.515625 648.929688 198.839844 657.960938 235.050781 C 660.128906 243.65625 665.894531 250.886719 673.824219 254.882812 C 681.757812 258.910156 691 259.277344 699.179688 255.890625 C 709.03125 251.832031 719.496094 249.789062 730.296875 249.789062 C 776.578125 249.789062 814.195312 287.40625 814.195312 333.6875 C 814.195312 363.1875 799.125 389.394531 775.480469 403.976562 Z M 814.195312 813.796875 L 814.195312 463.347656 L 844.703125 463.347656 C 930.828125 463.347656 936.046875 539.710938 936.230469 554.871094 C 936.230469 625.378906 935.800781 750.828125 814.195312 813.796875 Z M 814.195312 813.796875"/></g></svg>