<?xml version="1.0" encoding="UTF-8" standalone="no"?>
<!DOCTYPE svg PUBLIC "-//W3C//DTD SVG 1.1//EN" "http://www.w3.org/Graphics/SVG/1.1/DTD/svg11.dtd">
<svg width="100%" height="100%" viewBox="0 0 64 64" version="1.1" xmlns="http://www.w3.org/2000/svg" xmlns:xlink="http://www.w3.org/1999/xlink" xml:space="preserve" xmlns:serif="http://www.serif.com/" style="fill-rule:evenodd;clip-rule:evenodd;stroke-linejoin:round;stroke-miterlimit:2;">
    <g>
        <path d="M32,64C40.547,64 48.583,60.671 54.626,54.627C60.671,48.583 64,40.547 64,32C64,23.453 60.671,15.417 54.627,9.374C48.583,3.329 40.547,0 32,0C23.453,0 15.417,3.329 9.374,9.373C3.329,15.417 0,23.453 0,32C0,40.547 3.329,48.583 9.373,54.626C15.417,60.671 23.453,64 32,64ZM12.202,12.202C17.49,6.913 24.521,4 32,4C39.479,4 46.51,6.913 51.798,12.202C57.087,17.49 60,24.521 60,32C60,39.479 57.087,46.51 51.798,51.798C46.51,57.087 39.479,60 32,60C24.521,60 17.49,57.087 12.202,51.798C6.913,46.51 4,39.479 4,32C4,24.521 6.913,17.49 12.202,12.202Z" style="fill:white;fill-rule:nonzero;"/>
        <path d="M23.937,48L24,48C24.543,48 25.064,47.779 25.442,47.386L50.442,21.386C51.207,20.59 51.183,19.324 50.386,18.558C49.589,17.792 48.324,17.818 47.558,18.614L24.095,43.016L14.527,31.708C13.813,30.864 12.551,30.759 11.708,31.473C10.865,32.186 10.76,33.449 11.473,34.292L22.473,47.292C22.839,47.725 23.371,48 23.937,48Z" style="fill:white;fill-rule:nonzero;"/>
    </g>
</svg>
