<svg xmlns="http://www.w3.org/2000/svg" contentScriptType="text/ecmascript" width="1125" viewBox="0 0 1125 1125" height="1125" version="1.0"><defs><clipPath id="a"><path d="M 135.523438 135.523438 L 989.773438 135.523438 L 989.773438 989.773438 L 135.523438 989.773438 Z M 135.523438 135.523438"/></clipPath></defs><g clip-path="url(#a)"><path fill="#FFF" d="M 679.617188 554.207031 C 744.734375 514.464844 788.746094 443.417969 788.746094 361.671875 C 788.746094 237.015625 687.304688 135.574219 562.648438 135.574219 C 437.992188 135.574219 336.550781 237.015625 336.550781 361.671875 C 336.550781 443.417969 380.5625 514.464844 445.679688 554.207031 C 266.960938 605.257812 135.574219 769.707031 135.574219 964.601562 L 135.574219 989.726562 L 989.726562 989.726562 L 989.726562 964.601562 C 989.726562 769.707031 858.335938 605.257812 679.617188 554.207031 Z M 386.792969 361.671875 C 386.792969 264.699219 465.675781 185.816406 562.648438 185.816406 C 659.621094 185.816406 738.503906 264.699219 738.503906 361.671875 C 738.503906 458.644531 659.621094 537.527344 562.648438 537.527344 C 465.675781 537.527344 386.792969 458.644531 386.792969 361.671875 Z M 186.671875 939.480469 C 199.632812 743.378906 363.328125 587.769531 562.648438 587.769531 C 761.96875 587.769531 925.664062 743.378906 938.625 939.480469 Z M 186.671875 939.480469"/></g></svg>