<svg xmlns="http://www.w3.org/2000/svg" viewBox="0 0 143.64 153.43"><defs><style>.cls-1{fill:#d9000d;}.cls-2{fill:#b21b1b;}.cls-3{fill:#e4e8f2;}.cls-4{fill:#e1e3eb;}.cls-5{fill:#c1c7d5;}.cls-6{fill:#838fad;}</style></defs><g id="Layer_2" data-name="Layer 2"><g id="Layer_1-2" data-name="Layer 1"><path class="cls-1" d="M89.49,35.81a1.84,1.84,0,0,0-.52,1.6l2.8,16.33L92,54.85a1.8,1.8,0,0,1-2.61,1.9L73.89,48.62l-.2-.1a1.79,1.79,0,0,0-1.68,0L59.61,55l-3.25,1.71a1.8,1.8,0,0,1-2.62-1.9l3-17.44a1.84,1.84,0,0,0-.52-1.6L43.55,23.47a1.8,1.8,0,0,1,1-3.07l3.72-.54,13.78-2a1.79,1.79,0,0,0,1.36-1l0-.07L71.23,1a1.81,1.81,0,0,1,3.24,0L75,2.07l7.24,13.67a1.8,1.8,0,0,0,1.36,1l17.53,3.67a1.8,1.8,0,0,1,1,3.07Z"/><path class="cls-2" d="M89.49,35.82A1.78,1.78,0,0,0,89,37.41l3,17.44a1.8,1.8,0,0,1-2.61,1.9l-2.7-1.41L83.86,39a1.8,1.8,0,0,1,.51-1.6L97,25.07A1.8,1.8,0,0,0,96,22L78.51,18.33a1.82,1.82,0,0,1-1.36-1L69.91,3.67,71.23,1a1.81,1.81,0,0,1,3.24,0l7.79,14.74a1.84,1.84,0,0,0,1.36,1l17.54,3.67a1.8,1.8,0,0,1,1,3.07Z"/><path class="cls-3" d="M141.37,145.12H79.09a2.27,2.27,0,0,1-2.27-2.27v-6.71a18.66,18.66,0,0,1,8.82-15.78L104.15,109a2.28,2.28,0,0,1,1.2-.33h9.77a2.27,2.27,0,0,1,1.19.33l18.51,11.39a18.66,18.66,0,0,1,8.82,15.78v6.71A2.26,2.26,0,0,1,141.37,145.12Z"/><path class="cls-4" d="M134.82,120.27l-10.67-6.57-7.84-4.82a2.29,2.29,0,0,0-1.2-.34h-9.76a2.32,2.32,0,0,0-1.2.34L85.64,120.27A18.63,18.63,0,0,0,76.82,136v6.72A2.28,2.28,0,0,0,79.09,145h62.28a2.27,2.27,0,0,0,2.27-2.27V136A18.61,18.61,0,0,0,134.82,120.27Z"/><path class="cls-5" d="M134.82,120.27l-10.67-6.57c9.3,9.29,9.4,23.77,8.69,31.33h8.53a2.27,2.27,0,0,0,2.27-2.27V136A18.61,18.61,0,0,0,134.82,120.27Z"/><path class="cls-5" d="M125.59,85.62v10.5a15.36,15.36,0,0,1-15.36,15.35,15.52,15.52,0,0,1-3.07-.3A18.18,18.18,0,0,0,122,93.28V80.86a18.17,18.17,0,0,0-1.1-6.25l.16.15A15.3,15.3,0,0,1,125.59,85.62Z"/><path class="cls-3" d="M122,80.86V93.28a18.18,18.18,0,0,1-14.88,17.89,15.37,15.37,0,0,1-12.29-15V85.62a15.36,15.36,0,0,1,26.07-11A18.17,18.17,0,0,1,122,80.86Z"/><path class="cls-4" d="M122,80.86V93.28a18.18,18.18,0,0,1-14.88,17.89,15.37,15.37,0,0,1-12.29-15V85.62a15.36,15.36,0,0,1,26.07-11A18.17,18.17,0,0,1,122,80.86Z"/><path class="cls-3" d="M0,142.85v-6.71a18.66,18.66,0,0,1,8.82-15.78L27.33,109a2.28,2.28,0,0,1,1.2-.33H38.3a2.27,2.27,0,0,1,1.19.33L58,120.36a18.66,18.66,0,0,1,8.82,15.78v6.71a2.26,2.26,0,0,1-2.27,2.27H2.27A2.27,2.27,0,0,1,0,142.85Z"/><path class="cls-4" d="M0,136v6.72A2.28,2.28,0,0,0,2.27,145H64.55a2.27,2.27,0,0,0,2.27-2.27V136A18.65,18.65,0,0,0,58,120.27L39.49,108.88a2.28,2.28,0,0,0-1.19-.34H28.53a2.32,2.32,0,0,0-1.2.34l-7.84,4.82L8.82,120.27A18.63,18.63,0,0,0,0,136Z"/><path class="cls-5" d="M0,136v6.72A2.28,2.28,0,0,0,2.27,145h8.54c-.71-7.56-.62-22,8.68-31.33L8.82,120.27A18.63,18.63,0,0,0,0,136Z"/><path class="cls-5" d="M18.05,85.62v10.5a15.36,15.36,0,0,0,15.36,15.35,15.52,15.52,0,0,0,3.07-.3A18.18,18.18,0,0,1,21.6,93.28V80.86a17.94,17.94,0,0,1,1.11-6.25.75.75,0,0,0-.16.15A15.31,15.31,0,0,0,18.05,85.62Z"/><path class="cls-3" d="M21.6,80.86V93.28a18.18,18.18,0,0,0,14.88,17.89,15.37,15.37,0,0,0,12.3-15V85.62a15.36,15.36,0,0,0-26.07-11A17.94,17.94,0,0,0,21.6,80.86Z"/><path class="cls-4" d="M21.6,80.86V93.28a18.18,18.18,0,0,0,14.88,17.89,15.37,15.37,0,0,0,12.3-15V85.62a15.36,15.36,0,0,0-26.07-11A17.94,17.94,0,0,0,21.6,80.86Z"/><path class="cls-3" d="M109.33,153.43H33.22a2.78,2.78,0,0,1-2.78-2.77v-8.2a22.77,22.77,0,0,1,10.78-19.28l22.63-13.92a2.74,2.74,0,0,1,1.45-.41H77.24a2.78,2.78,0,0,1,1.46.41l22.62,13.92a22.77,22.77,0,0,1,10.78,19.28v8.2A2.77,2.77,0,0,1,109.33,153.43Z"/><path class="cls-5" d="M101.33,123.06l-13-8-9.58-5.89a2.8,2.8,0,0,0-1.46-.41H65.3a2.74,2.74,0,0,0-1.45.41L41.22,123.06a22.79,22.79,0,0,0-10.77,19.28v8.2a2.77,2.77,0,0,0,2.77,2.77h76.11a2.77,2.77,0,0,0,2.77-2.77v-8.2A22.76,22.76,0,0,0,101.33,123.06Z"/><path class="cls-6" d="M101.33,123.06l-13-8c11.37,11.36,11.49,29.05,10.62,38.28h10.43a2.77,2.77,0,0,0,2.77-2.77v-8.2A22.76,22.76,0,0,0,101.33,123.06Z"/><path class="cls-6" d="M90.05,80.72V93.55a18.77,18.77,0,0,1-18.78,18.76,19.31,19.31,0,0,1-3.75-.37A22.22,22.22,0,0,0,85.7,90.08V74.9a22.24,22.24,0,0,0-1.34-7.64l.19.19A18.69,18.69,0,0,1,90.05,80.72Z"/><path class="cls-5" d="M85.7,74.9V90.08a22.22,22.22,0,0,1-18.18,21.86,18.79,18.79,0,0,1-15-18.39V80.72A18.78,18.78,0,0,1,84.36,67.26,22.24,22.24,0,0,1,85.7,74.9Z"/></g></g></svg>