<svg xmlns="http://www.w3.org/2000/svg" viewBox="0 0 141.4 138.41"><defs><style>.cls-1{fill:#c1c7d5;}.cls-2{fill:#e1e3eb;}.cls-3{fill:#d9000d;}.cls-4{fill:#1a1f35;}.cls-5,.cls-6{fill:none;}.cls-6{stroke:#1a1f35;stroke-miterlimit:10;stroke-width:2.29px;}.cls-7{fill:#b21b1b;}.cls-8{fill:#a3abc1;}</style></defs><g id="Layer_2" data-name="Layer 2"><g id="Layer_1-2" data-name="Layer 1"><path id="Path_350" data-name="Path 350" class="cls-1" d="M126.68,31.34v99.77c0,4-3.59,7.3-8,7.3H22.23c-4.44,0-8-3.27-8-7.3h0V31.34L70.44,2.14,116,25.77Z"/><path id="Path_351" data-name="Path 351" class="cls-2" d="M116,25.77V94.9c0,18.64-16.61,33.76-37.12,33.78H14.19V31.34L70.44,2.14Z"/><path id="Path_362" data-name="Path 362" class="cls-3" d="M91.14,117.57l-4.63,20.84H54.37l-4.64-20.84a2.68,2.68,0,0,1,2-3.2,3,3,0,0,1,.66-.07H88.57A2.69,2.69,0,0,1,91.21,117,3.31,3.31,0,0,1,91.14,117.57Z"/><path class="cls-4" d="M53,135.7l-1.78,0H51v.06H51A2.59,2.59,0,0,0,53,135.7Z"/><path class="cls-4" d="M51,135.73H49.67"/><path class="cls-5" d="M76.55,94.48a17,17,0,0,1-4.43-.59,1.12,1.12,0,0,1-.8-.8A16.92,16.92,0,0,1,92.08,72.33a1.12,1.12,0,0,1,.8.8A16.91,16.91,0,0,1,76.55,94.48Z"/><path class="cls-5" d="M64.6,94.71h0A17.24,17.24,0,0,1,48,73a1.17,1.17,0,0,1,.82-.82,17.2,17.2,0,0,1,16.66,4.43,17.28,17.28,0,0,1,4.44,16.67,1.21,1.21,0,0,1-.81.83A17.21,17.21,0,0,1,64.6,94.71Z"/><line class="cls-6" x1="70.84" y1="84.69" x2="70.84" y2="114.3"/><path class="cls-7" d="M70.85,92.43l0,.14a1.3,1.3,0,0,1-.89.9,17,17,0,0,1-4.32.57A16.34,16.34,0,0,1,54,89.22a16.52,16.52,0,0,1-4.24-15.94,1.28,1.28,0,0,1,.9-.9l.27-.07a16.81,16.81,0,0,0,4.46,11.23A29.12,29.12,0,0,0,70.85,92.43Z"/><path class="cls-3" d="M70.85,92.43a29.12,29.12,0,0,1-15.48-8.89,16.81,16.81,0,0,1-4.46-11.23,16.56,16.56,0,0,1,4-.5,16.43,16.43,0,0,1,15.9,20.62Z"/><path class="cls-7" d="M71.29,92.25l0,.14a1.28,1.28,0,0,0,.9.9,16.59,16.59,0,0,0,4.32.57A16.37,16.37,0,0,0,88.21,89a16.56,16.56,0,0,0,4.26-16,1.29,1.29,0,0,0-.9-.91l-.27-.06a16.91,16.91,0,0,1-4.48,11.26A29.2,29.2,0,0,1,71.29,92.25Z"/><path class="cls-3" d="M71.29,92.25a29.2,29.2,0,0,0,15.53-8.92A16.91,16.91,0,0,0,91.3,72.07a16.47,16.47,0,0,0-15.72,4.32A16.52,16.52,0,0,0,71.29,92.25Z"/><g id="Group_799" data-name="Group 799"><g id="Group_795" data-name="Group 795"><path id="Path_1167" data-name="Path 1167" class="cls-8" d="M94.46,43a2.21,2.21,0,0,1-1.57-.65,29.68,29.68,0,0,0-41.91,0,2.21,2.21,0,0,1-3.13,0h0a2.19,2.19,0,0,1,0-3.12h0a34.09,34.09,0,0,1,48.18,0,2.21,2.21,0,0,1,0,3.12h0A2.19,2.19,0,0,1,94.46,43Z"/></g><g id="Group_796" data-name="Group 796"><path id="Path_1168" data-name="Path 1168" class="cls-8" d="M87.31,50.1a2.2,2.2,0,0,1-1.56-.64,19.56,19.56,0,0,0-27.63,0,2.22,2.22,0,0,1-3.13,0h0a2.22,2.22,0,0,1,0-3.13,24,24,0,0,1,33.88,0,2.21,2.21,0,0,1-1.56,3.77Z"/></g><g id="Group_797" data-name="Group 797"><path id="Path_1169" data-name="Path 1169" class="cls-8" d="M79.85,57.56a2.19,2.19,0,0,1-1.56-.65,9,9,0,0,0-12.72,0,2.21,2.21,0,0,1-3.12,0h0a2.2,2.2,0,0,1,0-3.13,13.43,13.43,0,0,1,19,0,2.22,2.22,0,0,1-1.57,3.78Z"/></g><g id="Group_798" data-name="Group 798"><path id="Path_1170" data-name="Path 1170" class="cls-8" d="M75.19,60a4.61,4.61,0,1,1-6.52,0h0A4.61,4.61,0,0,1,75.19,60Z"/></g></g><path class="cls-8" d="M138.06,42.66a3.41,3.41,0,0,1-1.57-.39l-66-35.16L4.91,42.26a3.34,3.34,0,0,1-3.15-5.88L68.91.4a3.33,3.33,0,0,1,3.14,0l67.58,36a3.34,3.34,0,0,1-1.57,6.28Z"/></g></g></svg>