<svg xmlns="http://www.w3.org/2000/svg" viewBox="0 0 135.21 123.19"><defs><style>.cls-1{fill:#c1c7d5;}.cls-2{fill:#a3abc1;}.cls-3{fill:#e1e3eb;}.cls-4{fill:#cbd3ea;}.cls-5{fill:#d9000d;}.cls-6{fill:#b21b1b;}</style></defs><g id="Layer_2" data-name="Layer 2"><g id="Layer_1-2" data-name="Layer 1"><g id="Group_1616" data-name="Group 1616"><rect id="Rectangle_806" data-name="Rectangle 806" class="cls-1" x="52.36" y="92.02" width="28.94" height="20.77"/></g><g id="Group_1621" data-name="Group 1621"><rect id="Rectangle_809" data-name="Rectangle 809" class="cls-2" x="74.41" y="92.28" width="6.89" height="20.24"/></g><g id="Group_1644" data-name="Group 1644"><g id="Environmental_Monitoring" data-name="Environmental Monitoring"><g id="Group_1643" data-name="Group 1643"><g id="Group_1642" data-name="Group 1642"><g id="Group_1617" data-name="Group 1617"><path id="Rectangle_807" data-name="Rectangle 807" class="cls-1" d="M39.12,112.29h57a4.25,4.25,0,0,1,4.26,4.25v6.65H34.87v-6.65A4.25,4.25,0,0,1,39.12,112.29Z"/></g><g id="Group_1618" data-name="Group 1618"><path id="Rectangle_808" data-name="Rectangle 808" class="cls-2" d="M88.67,112.29h7.42a4.25,4.25,0,0,1,4.26,4.25h0v6.65H88.67v-10.9Z"/></g><g id="Group_1614" data-name="Group 1614"><path class="cls-3" d="M123.54,0V77.67H0V8.8A8.78,8.78,0,0,1,8.79,0Z"/></g><g id="Group_1615" data-name="Group 1615"><path class="cls-1" d="M123.54,77.67V93H8.79A8.79,8.79,0,0,1,0,84.17v-6.5Z"/></g><g id="Group_1619" data-name="Group 1619"><path class="cls-2" d="M135.21,77.67v6.5A8.79,8.79,0,0,1,126.42,93h-2.88V77.67Z"/></g><g id="Group_1620" data-name="Group 1620"><path class="cls-1" d="M135.21,8.8V77.67H123.54V0h2.88A8.78,8.78,0,0,1,135.21,8.8Z"/><path class="cls-4" d="M123.84,0h0Z"/></g><rect id="Rectangle_121" data-name="Rectangle 121" class="cls-2" x="66.59" y="24.62" width="35.02" height="11.06" rx="5.53"/><path id="Path_546" data-name="Path 546" class="cls-2" d="M103.19,42.46H68.65a1.82,1.82,0,1,0,0,3.63h34.54a1.82,1.82,0,1,0,0-3.63Z"/><path id="Path_547" data-name="Path 547" class="cls-2" d="M103.19,49.73H68.65a1.82,1.82,0,0,0,0,3.64h34.54a1.82,1.82,0,1,0,0-3.64Z"/><path id="Path_548" data-name="Path 548" class="cls-2" d="M99.56,57H68.65a1.82,1.82,0,0,0,0,3.64H99.56a1.82,1.82,0,0,0,0-3.64Z"/><path class="cls-5" d="M54.47,35.74V40.6a2.13,2.13,0,0,1-2.13,2.13H45.48v6.86a2.13,2.13,0,0,1-2.13,2.13H38.41a2.12,2.12,0,0,1-2-2.12V42.73h-7a2.12,2.12,0,0,1-2-2.12V35.74a2.13,2.13,0,0,1,2.12-2.13h6.87V26.75a2.13,2.13,0,0,1,2.13-2.13h4.85a2.15,2.15,0,0,1,2,1.49,2.25,2.25,0,0,1,.09.64v6.86h6.86a2.16,2.16,0,0,1,2,1.49A2.25,2.25,0,0,1,54.47,35.74Z"/><path class="cls-6" d="M54.48,40.6a2.14,2.14,0,0,1-2.13,2.13H45.48v6.86a2.12,2.12,0,0,1-2.12,2.13H38.5a2.13,2.13,0,0,1-2-1.49h4.94a2.12,2.12,0,0,0,2.13-2.12V41.24h6.87a2.12,2.12,0,0,0,2.12-2.13V34.26a2.2,2.2,0,0,0-.09-.64,2.12,2.12,0,0,1,2,2.12Z"/></g></g></g></g></g></g></svg>