<svg xmlns="http://www.w3.org/2000/svg" viewBox="0 0 127.67 146.52"><defs><style>.cls-1{fill:#e1e3eb;}.cls-2{fill:#c1c7d5;}.cls-3{fill:#b21b1b;}.cls-4{fill:#d9000d;}.cls-5{fill:#333f6b;}.cls-6{fill:none;}</style></defs><g id="Layer_2" data-name="Layer 2"><g id="Layer_1-2" data-name="Layer 1"><g id="User_Driven_Innovation" data-name="User Driven Innovation"><g id="Group_920" data-name="Group 920"><g id="Group_919" data-name="Group 919"><g id="Group_906" data-name="Group 906"><path class="cls-1" d="M127.65,91.78a5,5,0,0,1-5,4.92h-9v12.6a20.59,20.59,0,0,1-20.79,20.39H74v16.83H34.34v-89c0-.64,0-1.29,0-1.93,0-.82.11-1.63.2-2.43a36.91,36.91,0,0,1,1.12-5.78A38.66,38.66,0,0,1,46.53,29.47,39.93,39.93,0,0,1,72.28,18.65c.52,0,1,0,1.57,0a40.53,40.53,0,0,1,11.57,1.72A39.33,39.33,0,0,1,113.67,58v.72l13.58,31.12A4.77,4.77,0,0,1,127.65,91.78Z"/></g><g id="Group_907" data-name="Group 907"><path id="Path_1271" data-name="Path 1271" class="cls-2" d="M113.94,109.3V96.71h8.81a4.94,4.94,0,0,0,4.53-6.86L114,58.73v-1.2A38.94,38.94,0,0,0,84.5,19.78c11.7,6.9,22.23,23,22.23,37.92l6.67,15.71,6.81,15.11a2.34,2.34,0,0,1-1.17,3.1,2.28,2.28,0,0,1-1,.21h-8.33a2.32,2.32,0,0,0-2.34,2.33h0v14.7a16,16,0,0,1-16,15.95H70.83a2.34,2.34,0,0,0-2.34,2.34v19.36H75V129.7H93.55A20.39,20.39,0,0,0,113.94,109.3Z"/></g><g id="Group_917" data-name="Group 917"><g id="Group_909" data-name="Group 909"><path class="cls-3" d="M28.1,2a23.8,23.8,0,0,0-2.77-2H24.08l-.34,0a.17.17,0,0,0-.1,0,3.85,3.85,0,0,0-.48,0Q21.85.18,20.58.4l-.85.17c-.69.15-1.37.33-2.06.54s-1.33.44-2,.7c-.43.17-.86.36-1.27.55l-1,.5c-.65.34-1.29.71-1.91,1.11-.46.29-.92.6-1.36.94s-.87.66-1.29,1A24.95,24.95,0,0,0,7.4,42.73c.32.32.65.62,1,.92a11.67,11.67,0,0,1,2.92,3.93,9.4,9.4,0,0,1,.44,1.15,11,11,0,0,1,.46,1.88,11.37,11.37,0,0,1,.14,1.75V65.29c0,.16,0,.33,0,.48l0,.35a12.1,12.1,0,0,0,.14,1.21,2.2,2.2,0,0,0,.07.37,2.47,2.47,0,0,0,.06.29,6.7,6.7,0,0,0,.23.88c0,.15.09.31.14.46.13.38.26.74.42,1.09.08.18.16.35.25.53s.18.35.28.51a5.24,5.24,0,0,0,.3.51c.1.16.2.32.31.48s.23.32.36.48.29.37.44.55.21.25.32.36a12.15,12.15,0,0,0,1.81-.65,12.62,12.62,0,0,0,6.66-7h-10a8.12,8.12,0,0,1,0-.86V62.66l.26,0H24.94c0-.32,0-.64,0-1V54.13H14.09V52.36A11.27,11.27,0,0,0,14,50.61h9.26V24.14a1.76,1.76,0,1,1,3.52,0V42.59a11.19,11.19,0,0,1,2.09-2.47A25,25,0,0,0,28.1,2Z"/><path class="cls-4" d="M35.85,63.06a1.76,1.76,0,0,1,0,2.69c0-.15,0-.31,0-.46Z"/><path class="cls-4" d="M37.42,55.6c0-.87.1-1.73.2-2.59V65.29c0,.18,0,.36,0,.54a2.07,2.07,0,0,1,0,.35,2,2,0,0,1,0,.25c0,.06,0,.1,0,.16a.34.34,0,0,1,0,.1,1.5,1.5,0,0,0,0,.2c0,.18-.05.35-.08.53s0,.24-.07.35V57.53C37.37,56.89,37.39,56.24,37.42,55.6Z"/><path class="cls-3" d="M49.74,28.32c-.05.38-.11.77-.18,1.15a25,25,0,0,1-8.08,14.27,11.46,11.46,0,0,0-2.74,3.65,4.48,4.48,0,0,0-.2.44A40.43,40.43,0,0,1,48.71,29.35C49,29,49.39,28.66,49.74,28.32Z"/><path class="cls-3" d="M25,61.67v1h0C25,62.32,25,62,25,61.67Z"/><path class="cls-3" d="M30.8,76.51l-.33.17h0l-.55.26-.34.13-.33.11c.3-.11.59-.22.88-.35a4.09,4.09,0,0,0,.47-.23Z"/><path class="cls-3" d="M33.94,74.2a.76.76,0,0,1-.09.09l-.21.2Z"/></g><g id="Group_910" data-name="Group 910"><path class="cls-4" d="M37.32,21.36a24.93,24.93,0,0,1-8.49,18.76,11.19,11.19,0,0,0-2.09,2.47V24.14a1.76,1.76,0,1,0-3.52,0V50.61H14a11.27,11.27,0,0,1,.13,1.75v1.77H25v7.54c0,.33,0,.65,0,1H14.35l-.26,0v2.63a8.12,8.12,0,0,0,0,.86h10a12.62,12.62,0,0,1-6.66,7,12.15,12.15,0,0,1-1.81.65c-.11-.11-.21-.23-.32-.36a.17.17,0,0,1-.07-.08c-.13-.15-.25-.31-.37-.47s-.25-.32-.36-.48-.21-.32-.31-.48a5.24,5.24,0,0,1-.3-.51c-.1-.16-.19-.34-.28-.51s-.17-.35-.25-.53c-.16-.35-.29-.71-.42-1.09,0-.15-.1-.31-.14-.46a6.7,6.7,0,0,1-.23-.88,2.47,2.47,0,0,1-.06-.29,2.2,2.2,0,0,1-.07-.37,12.1,12.1,0,0,1-.14-1.21l0-.35c0-.15,0-.32,0-.48V52.36a11.37,11.37,0,0,0-.14-1.75,11,11,0,0,0-.46-1.88,11.36,11.36,0,0,0-.44-1.15,11.67,11.67,0,0,0-2.92-3.93c-.33-.3-.66-.6-1-.92A24.95,24.95,0,0,1,8.86,5.93c.42-.36.85-.69,1.29-1s.9-.64,1.36-.94c.62-.4,1.26-.77,1.91-1.11l1-.5c.41-.19.84-.38,1.27-.55.65-.26,1.31-.49,2-.7S19,.72,19.73.57L20.58.4c.85-.14,1.71-.26,2.58-.32a3.87,3.87,0,0,1,.48,0,.17.17,0,0,1,.1,0l.34,0h1.25A23.8,23.8,0,0,1,28.1,2,24.93,24.93,0,0,1,37.32,21.36Z"/></g><g id="Group_911" data-name="Group 911"><path class="cls-4" d="M14.09,54.13V52.36H12.34V65.29c0,.16,0,.33,0,.48l0,.35a12.1,12.1,0,0,0,.14,1.21,2.2,2.2,0,0,0,.07.37,2.47,2.47,0,0,0,.06.29,6.7,6.7,0,0,0,.23.88c0,.15.09.31.14.46.13.38.26.74.42,1.09.08.18.16.35.25.53s.18.35.28.51a5.24,5.24,0,0,0,.3.51c.1.16.2.32.31.48s.23.32.36.48.24.32.37.47a.17.17,0,0,0,.07.08c.11.13.21.25.32.36a12.15,12.15,0,0,0,1.81-.65,12.62,12.62,0,0,0,6.66-7h-10a8.12,8.12,0,0,1,0-.86V62.66l.26,0H25V54.13ZM29.24,77.18l.33-.11.34-.13.21-.11C29.83,77,29.54,77.07,29.24,77.18Zm.88-.35.34-.15h0l.12-.08A4.09,4.09,0,0,1,30.12,76.83Zm3.52-2.34.21-.2a.76.76,0,0,0,.09-.09Zm2.9-4.09A12,12,0,0,0,37.08,69,13.93,13.93,0,0,1,36.54,70.4Z"/><path class="cls-3" d="M50,25a26.27,26.27,0,0,1-.22,3.34c-.35.34-.7.69-1,1A40.43,40.43,0,0,0,38.54,47.83h0a11.63,11.63,0,0,0-.79,2.78,11.36,11.36,0,0,0-.13,1.75V53c-.1.86-.16,1.72-.2,2.59,0,.64-.05,1.29-.05,1.93V67.77c0,.23-.1.46-.15.68s-.09.33-.14.5a13.93,13.93,0,0,1-.54,1.45c-.08.15-.14.31-.22.46-.15.31-.32.62-.49.91s-.18.29-.28.43l-.28.42s0,0,0,0L35,73c-.2.26-.41.5-.62.75l-.4.41-.3.29-.07.06a4,4,0,0,1-.38.34l-.3.25c-.11.09-.24.18-.35.28a.83.83,0,0,0-.16.12.8.8,0,0,0-.19.13l-.29.19a2.55,2.55,0,0,1-.39.24,3.3,3.3,0,0,1-.45.26l-.26.15-.21.09a4.09,4.09,0,0,1-.47.23c-.29.13-.58.24-.88.35l-.11,0-.05,0-.45.14c-.17.06-.35.1-.53.15H28l-.68.16c-.26,0-.52.09-.79.12l-.78.08c-.27,0-.53,0-.81,0h0l-.73,0c-.3,0-.6,0-.89-.09s-.41,0-.62-.09h0l-.59-.13a7.62,7.62,0,0,1-.82-.22c-.22-.06-.44-.14-.65-.21l0,0L20,76.89a10,10,0,0,1-1.38-.71c-.16-.08-.29-.17-.44-.26s-.49-.32-.72-.5-.36-.28-.53-.43-.37-.31-.55-.48-.33-.33-.49-.5l-.16-.17a12.15,12.15,0,0,0,1.81-.65,12.62,12.62,0,0,0,6.66-7H34.71a1.76,1.76,0,0,0,1.13-.41,1.76,1.76,0,0,0,0-2.69,1.78,1.78,0,0,0-1.14-.42H25V54.13H35.85V52.36A14.55,14.55,0,0,1,36,50.61H26.74v-8a11.19,11.19,0,0,1,2.09-2.47A25,25,0,0,0,28.1,2a23.8,23.8,0,0,0-2.77-2h-.86L25,0A25,25,0,0,1,50,25Z"/></g><g id="Group_915" data-name="Group 915"><path class="cls-5" d="M36.47,64.4a1.74,1.74,0,0,1-.63,1.35c0-.15,0-.31,0-.46V63.06A1.74,1.74,0,0,1,36.47,64.4Z"/></g><g id="Group_913" data-name="Group 913"><path class="cls-6" d="M36,50.61a14.55,14.55,0,0,0-.11,1.75v1.77H14.09V52.36A11.27,11.27,0,0,0,14,50.61Z"/><path class="cls-6" d="M26.74,24.14V50.61H23.22V24.14a1.76,1.76,0,1,1,3.52,0Z"/></g></g></g></g></g></g></g></svg>
